<svg width="25" height="24" viewBox="0 0 25 24" fill="none" xmlns="http://www.w3.org/2000/svg">
<path d="M12.5 14C12.6978 14 12.8911 13.9414 13.0556 13.8315C13.22 13.7216 13.3482 13.5654 13.4239 13.3827C13.4996 13.2 13.5194 12.9989 13.4808 12.8049C13.4422 12.6109 13.347 12.4327 13.2071 12.2929C13.0673 12.153 12.8891 12.0578 12.6951 12.0192C12.5011 11.9806 12.3 12.0004 12.1173 12.0761C11.9346 12.1518 11.7784 12.28 11.6685 12.4444C11.5586 12.6089 11.5 12.8022 11.5 13C11.5 13.2652 11.6054 13.5196 11.7929 13.7071C11.9804 13.8946 12.2348 14 12.5 14ZM17.5 14C17.6978 14 17.8911 13.9414 18.0556 13.8315C18.22 13.7216 18.3482 13.5654 18.4239 13.3827C18.4996 13.2 18.5194 12.9989 18.4808 12.8049C18.4422 12.6109 18.347 12.4327 18.2071 12.2929C18.0673 12.153 17.8891 12.0578 17.6951 12.0192C17.5011 11.9806 17.3 12.0004 17.1173 12.0761C16.9346 12.1518 16.7784 12.28 16.6685 12.4444C16.5586 12.6089 16.5 12.8022 16.5 13C16.5 13.2652 16.6054 13.5196 16.7929 13.7071C16.9804 13.8946 17.2348 14 17.5 14ZM12.5 18C12.6978 18 12.8911 17.9414 13.0556 17.8315C13.22 17.7216 13.3482 17.5654 13.4239 17.3827C13.4996 17.2 13.5194 16.9989 13.4808 16.8049C13.4422 16.6109 13.347 16.4327 13.2071 16.2929C13.0673 16.153 12.8891 16.0578 12.6951 16.0192C12.5011 15.9806 12.3 16.0004 12.1173 16.0761C11.9346 16.1518 11.7784 16.28 11.6685 16.4444C11.5586 16.6089 11.5 16.8022 11.5 17C11.5 17.2652 11.6054 17.5196 11.7929 17.7071C11.9804 17.8946 12.2348 18 12.5 18ZM17.5 18C17.6978 18 17.8911 17.9414 18.0556 17.8315C18.22 17.7216 18.3482 17.5654 18.4239 17.3827C18.4996 17.2 18.5194 16.9989 18.4808 16.8049C18.4422 16.6109 18.347 16.4327 18.2071 16.2929C18.0673 16.153 17.8891 16.0578 17.6951 16.0192C17.5011 15.9806 17.3 16.0004 17.1173 16.0761C16.9346 16.1518 16.7784 16.28 16.6685 16.4444C16.5586 16.6089 16.5 16.8022 16.5 17C16.5 17.2652 16.6054 17.5196 16.7929 17.7071C16.9804 17.8946 17.2348 18 17.5 18ZM7.5 14C7.69778 14 7.89112 13.9414 8.05557 13.8315C8.22002 13.7216 8.34819 13.5654 8.42388 13.3827C8.49957 13.2 8.51937 12.9989 8.48079 12.8049C8.4422 12.6109 8.34696 12.4327 8.20711 12.2929C8.06725 12.153 7.88907 12.0578 7.69509 12.0192C7.50111 11.9806 7.30004 12.0004 7.11732 12.0761C6.93459 12.1518 6.77841 12.28 6.66853 12.4444C6.55865 12.6089 6.5 12.8022 6.5 13C6.5 13.2652 6.60536 13.5196 6.79289 13.7071C6.98043 13.8946 7.23478 14 7.5 14ZM19.5 4H18.5V3C18.5 2.73478 18.3946 2.48043 18.2071 2.29289C18.0196 2.10536 17.7652 2 17.5 2C17.2348 2 16.9804 2.10536 16.7929 2.29289C16.6054 2.48043 16.5 2.73478 16.5 3V4H8.5V3C8.5 2.73478 8.39464 2.48043 8.20711 2.29289C8.01957 2.10536 7.76522 2 7.5 2C7.23478 2 6.98043 2.10536 6.79289 2.29289C6.60536 2.48043 6.5 2.73478 6.5 3V4H5.5C4.70435 4 3.94129 4.31607 3.37868 4.87868C2.81607 5.44129 2.5 6.20435 2.5 7V19C2.5 19.7956 2.81607 20.5587 3.37868 21.1213C3.94129 21.6839 4.70435 22 5.5 22H19.5C20.2956 22 21.0587 21.6839 21.6213 21.1213C22.1839 20.5587 22.5 19.7956 22.5 19V7C22.5 6.20435 22.1839 5.44129 21.6213 4.87868C21.0587 4.31607 20.2956 4 19.5 4ZM20.5 19C20.5 19.2652 20.3946 19.5196 20.2071 19.7071C20.0196 19.8946 19.7652 20 19.5 20H5.5C5.23478 20 4.98043 19.8946 4.79289 19.7071C4.60536 19.5196 4.5 19.2652 4.5 19V10H20.5V19ZM20.5 8H4.5V7C4.5 6.73478 4.60536 6.48043 4.79289 6.29289C4.98043 6.10536 5.23478 6 5.5 6H19.5C19.7652 6 20.0196 6.10536 20.2071 6.29289C20.3946 6.48043 20.5 6.73478 20.5 7V8ZM7.5 18C7.69778 18 7.89112 17.9414 8.05557 17.8315C8.22002 17.7216 8.34819 17.5654 8.42388 17.3827C8.49957 17.2 8.51937 16.9989 8.48079 16.8049C8.4422 16.6109 8.34696 16.4327 8.20711 16.2929C8.06725 16.153 7.88907 16.0578 7.69509 16.0192C7.50111 15.9806 7.30004 16.0004 7.11732 16.0761C6.93459 16.1518 6.77841 16.28 6.66853 16.4444C6.55865 16.6089 6.5 16.8022 6.5 17C6.5 17.2652 6.60536 17.5196 6.79289 17.7071C6.98043 17.8946 7.23478 18 7.5 18Z" fill="#8258F4"/>
</svg>
