<svg width="19" height="18" viewBox="0 0 19 18" fill="none" xmlns="http://www.w3.org/2000/svg">
<path d="M17.3447 8.55557C17.3478 9.72878 17.0737 10.8861 16.5447 11.9333C15.9175 13.1882 14.9534 14.2437 13.7602 14.9816C12.5671 15.7195 11.192 16.1106 9.78916 16.1111C8.61594 16.1142 7.4586 15.8401 6.41138 15.3111L1.34473 17L3.03361 11.9333C2.50466 10.8861 2.23056 9.72878 2.23361 8.55557C2.23416 7.15269 2.62527 5.77766 3.36314 4.58451C4.10101 3.39135 5.1565 2.42719 6.41138 1.80002C7.4586 1.27107 8.61594 0.996966 9.78916 1.00003H10.2336C12.0864 1.10224 13.8363 1.88426 15.1484 3.19634C16.4605 4.50843 17.2425 6.25837 17.3447 8.11113V8.55557Z" stroke="#474747" stroke-width="1.5" stroke-linecap="round" stroke-linejoin="round"/>
</svg>
